HIERARCHY
ROOT Hips
{
	OFFSET	0.00	0.00	0.00
	CHANNELS 6 Xposition Yposition Zposition Zrotation Xrotation Yrotation
	JOINT Spine
	{
		OFFSET	 0.00	0.01	 0.00
		CHANNELS 3 Zrotation Xrotation Yrotation
		JOINT Spine1
		{
			OFFSET	 0.00	 2.45913012437421	 0.00
			CHANNELS 3 Zrotation Xrotation Yrotation
            JOINT Neck
            {
                OFFSET	 0.00	 2.48462964506057	 0.00
                CHANNELS 3 Zrotation Xrotation Yrotation
                JOINT Head
                {
                    OFFSET	 0.00	 0.927524780924562	 0.00
                    CHANNELS 3 Zrotation Xrotation Yrotation
                    End Site 
                    {
                        OFFSET	 0.00	 1.14999962169752	 0.00
                    }
                }
            }
			JOINT LeftShoulder
			{
				OFFSET	 0.00	 2.48462964506057	 0.00
				CHANNELS 3 Zrotation Xrotation Yrotation
				JOINT LeftUpArm
				{
					OFFSET	 0.00	 1.24881979654096	 0.00
					CHANNELS 3 Zrotation Xrotation Yrotation
					JOINT LeftForeArm
					{
						OFFSET	 0.00	2.59758046908119	 0.00
						CHANNELS 3 Zrotation Xrotation Yrotation
						JOINT LeftHand
						{
							OFFSET	 0.00	2.45542024364365	 0.00
							CHANNELS 3 Zrotation Xrotation Yrotation
							JOINT LeftHandThumb 
							{
								OFFSET	 0.00	0.00	 0.00
								CHANNELS 3 Zrotation Xrotation Yrotation
								End Site
								{
									OFFSET	 0.00	0.00	1.00000003353624
								}
							}
							JOINT L_Wrist_End 
							{
								OFFSET	 0.00	0.99999967115358	 0.00
								CHANNELS 3 Zrotation Xrotation Yrotation
								End Site 
								{
									OFFSET	 0.00	 0.00	 0.00
								}
							}
						}
					}
				}
			}
			JOINT RightShoulder
			{
				OFFSET	 0.00	 2.48462964506057	 0.00
				CHANNELS 3 Zrotation Xrotation Yrotation
				JOINT RightUpArm
				{
					OFFSET	 0.00	 1.24881979654096	 0.00
					CHANNELS 3 Zrotation Xrotation Yrotation
					JOINT RightForeArm
					{
						OFFSET	 0.00	2.59758046908119	 0.00
						CHANNELS 3 Zrotation Xrotation Yrotation
						JOINT RightHand
						{
							OFFSET	 0.00	2.45542024364365	 0.00
							CHANNELS 3 Zrotation Xrotation Yrotation
							JOINT RightHandThumb 
							{
								OFFSET	 0.00	0.00	 0.00
								CHANNELS 3 Zrotation Xrotation Yrotation
								End Site
								{
									OFFSET	 0.00	0.00	1.00000003353624
								}
							}
							JOINT R_Wrist_End 
							{
								OFFSET	 0.00	0.99999967115358	 0.00
								CHANNELS 3 Zrotation Xrotation Yrotation
								End Site 
								{
									OFFSET	 0.00	 0.00	 0.00
								}
							}
						}
					}
				}
			}
		}
	}
	JOINT LeftUpLeg
	{
		OFFSET	 1.2719394002717	 0.00	 0.00
		CHANNELS 3 Zrotation Xrotation Yrotation
		JOINT LeftLowLeg
		{
			OFFSET	 0.00	-4.3429100912261	 0.00
			CHANNELS 3 Zrotation Xrotation Yrotation
			JOINT LeftFoot
			{
				OFFSET	 0.00	-4.48767017425826	 0.00
				CHANNELS 3 Zrotation Xrotation Yrotation
				JOINT LeftToeBase
                {
                    OFFSET	 0.00	0.00	 1.51507020887566
                    CHANNELS 3 Zrotation Xrotation Yrotation
                    End Site 
                    {
                        OFFSET	 0.00	0.00	 0.75000010571191
                    }
                }
			}
		}
	}
	JOINT RightUpLeg
	{
		OFFSET	 -1.2719393604653	 0.00	 0.00
		CHANNELS 3 Zrotation Xrotation Yrotation
		JOINT RightLowLeg
		{
			OFFSET	 0.00	-4.3429100912261	 0.00
			CHANNELS 3 Zrotation Xrotation Yrotation
			JOINT RightFoot
			{
				OFFSET	 0.00	-4.48767017425826	 0.00
				CHANNELS 3 Zrotation Xrotation Yrotation
				JOINT RightToeBase
                {
                    OFFSET	 0.00	0.00	 1.51507020887566
                    CHANNELS 3 Zrotation Xrotation Yrotation
                    End Site 
                    {
                        OFFSET	 0.00	0.00	 0.749999965609858
                    }
                }   
			}
		}
	}
}
MOTION 
Frames:	13 
Frame Time: 0.02 
 1.9526199340820312 4.130979919433594 9.822069702148438 -155.395 83.2469 158.317 2.22054 -7.56815 -2.16559 0.550626 3.69656 -2.44769 -2.96981 28.8853 4.28638 15.522 -55.0658 12.0416 -91.83266 -13.6096 -4.57771 -10.9445 0.283807 -30.4472 0.0 20.8515 0.0 26.8587 -7.11049 25.0855 0.0 0.0 0.0 0.0 0.0 0.0 99.16836 -9.93696 0.449773 7.31724 -0.284512 33.2725 0.0 19.4552 0.0 -16.2655 -1.28074 -24.4463 0.0 0.0 0.0 0.0 0.0 0.0 4.38432 -5.10144 1.19641 0.0 7.47826 0.0 8.74238 7.07834 -1.77414 0.0 -36.65 0.0 0.446252 -2.94661 6.58167 0.0 6.94265 0.0 9.86698 9.04523 -6.40164 0.0 -28.0327 0.0 
  1.9526199340820312 4.13031005859375 9.82197021484375 -155.431 83.2317 158.348 2.21415 -7.60471 -2.16023 0.57124 3.69974 -2.44064 -2.9814 28.9434 4.28901 15.5059 -55.0249 11.9968 -91.87809 -13.5902 -4.57061 -10.9024 0.285977 -30.4016 0.0 20.8567 0.0 26.8771 -7.22529 25.0641 0.0 0.0 0.0 0.0 0.0 0.0 99.16337 -9.93269 0.449977 7.32394 -0.275331 33.2954 0.0 19.4945 0.0 -16.1017 -1.29237 -24.371 0.0 0.0 0.0 0.0 0.0 0.0 4.38855 -5.09981 1.22936 0.0 7.45357 0.0 8.75781 7.07519 -1.79721 0.0 -36.6513 0.0 0.448723 -2.96174 6.60777 0.0 6.94839 0.0 9.88703 9.03584 -6.41325 0.0 -28.0536 0.0 
  1.952469940185547 4.129660034179688 9.821959838867187 -155.43 83.2225 158.349 2.1616 -7.661 -2.19788 0.675956 3.77116 -2.46748 -3.06716 28.9446 4.38489 15.4751 -54.989 11.9606 -91.94393 -13.6319 -4.58853 -10.9011 0.272469 -30.361 0.0 20.8615 0.0 26.8661 -7.21598 25.078 0.0 0.0 0.0 0.0 0.0 0.0 99.12026 -9.8744 0.465846 7.34421 -0.24772 33.346 0.0 19.5174 0.0 -16.1423 -1.27807 -24.3548 0.0 0.0 0.0 0.0 0.0 0.0 4.39415 -5.1009 1.25418 0.0 7.44638 0.0 8.76456 7.06811 -1.81926 0.0 -36.6637 0.0 0.453882 -2.96706 6.62747 0.0 6.95159 0.0 9.89774 9.03105 -6.42696 0.0 -28.051601 0.0 
  1.9523199462890626 4.129200134277344 9.821939697265625 -155.42 83.2253 158.339 2.14811 -7.66415 -2.19591 0.693311 3.76505 -2.46243 -3.05405 28.989 4.37909 15.4562 -54.9475 11.9736 -91.94562 -13.6274 -4.56824 -10.9177 0.276607 -30.3139 0.0 20.8565 0.0 26.8664 -7.18804 25.0626 0.0 0.0 0.0 0.0 0.0 0.0 99.11482 -9.87182 0.492379 7.37535 -0.239438 33.3527 0.0 19.5359 0.0 -16.1662 -1.25747 -24.4129 0.0 0.0 0.0 0.0 0.0 0.0 4.39546 -5.09507 1.25753 0.0 7.44573 0.0 8.76418 7.06869 -1.81995 0.0 -36.6726 0.0 0.454588 -2.95709 6.62231 0.0 6.94334 0.0 9.89636 9.03117 -6.42465 0.0 -28.047401 0.0 
  1.951959991455078 4.128320007324219 9.82177001953125 -155.353 83.2301 158.286 2.12832 -7.66324 -2.19939 0.718986 3.74832 -2.46145 -3.04807 29.0534 4.38842 15.4403 -54.858 11.9609 -91.94346 -13.6434 -4.54904 -10.9665 0.307582 -30.3096 0.0 20.8407 0.0 26.7181 -7.2127 24.9804 0.0 0.0 0.0 0.0 0.0 0.0 99.10538 -9.88566 0.471422 7.43126 -0.172533 33.398 0.0 19.5366 0.0 -16.2114 -1.35877 -24.5797 0.0 0.0 0.0 0.0 0.0 0.0 4.39987 -5.0955 1.16058 0.0 7.46886 0.0 8.67176 7.05094 -1.79436 0.0 -36.6049 0.0 0.46229 -2.93551 6.62261 0.0 6.93167 0.0 9.8909 9.028629 -6.43875 0.0 -28.039299 0.0 
  1.9515199279785156 4.127799987792969 9.821599731445312 -155.313 83.2313 158.265 2.1184 -7.66026 -2.20406 0.720617 3.74232 -2.46405 -3.05534 29.0769 4.40957 15.4579 -54.828 11.96 -91.92544 -13.6467 -4.55532 -11.0008 0.307105 -30.2692 0.0 20.8331 0.0 26.6877 -7.27947 25.0549 0.0 0.0 0.0 0.0 0.0 0.0 99.10967 -9.88455 0.459777 7.45254 -0.143274 33.3587 0.0 19.5098 0.0 -16.2058 -1.39439 -24.6407 0.0 0.0 0.0 0.0 0.0 0.0 4.40469 -5.10231 1.09688 0.0 7.48485 0.0 8.71607 7.051 -1.72612 0.0 -36.632202 0.0 0.467638 -2.92766 6.59461 0.0 6.93454 0.0 9.87415 9.0207405 -6.43172 0.0 -28.0385 0.0 
  1.9511199951171876 4.127319946289062 9.821400146484375 -155.276 83.2394 158.254 2.10434 -7.66267 -2.21295 0.723832 3.76292 -2.4703 -3.06199 29.0715 4.41822 15.4509 -54.8041 11.9413 -91.9325 -13.638 -4.54692 -10.9898 0.309639 -30.1988 0.0 20.7485 0.0 26.7497 -7.19218 25.0743 0.0 0.0 0.0 0.0 0.0 0.0 99.12234 -9.86333 0.437587 7.46843 -0.14818 33.3585 0.0 19.4977 0.0 -16.2352 -1.33512 -24.6511 0.0 0.0 0.0 0.0 0.0 0.0 4.40584 -5.10368 1.06261 0.0 7.50048 0.0 8.71435 7.03973 -1.71564 0.0 -36.6324 0.0 0.470915 -2.91216 6.60529 0.0 6.93731 0.0 9.89407 9.00168 -6.45472 0.0 -28.0183 0.0 
  1.9508099365234375 4.1271798706054685 9.821259765625 -155.189 83.2468 158.195 2.10266 -7.6561 -2.20813 0.719905 3.78291 -2.46531 -3.05297 29.0722 4.39711 15.437 -54.8113 11.9303 -91.95143 -13.6016 -4.54901 -10.9882 0.291611 -30.2457 0.0 20.7421 0.0 26.7998 -7.18622 25.0805 0.0 0.0 0.0 0.0 0.0 0.0 99.1388 -9.85173 0.434739 7.50635 -0.173726 33.4518 0.0 19.535 0.0 -16.1209 -1.35799 -24.455 0.0 0.0 0.0 0.0 0.0 0.0 4.41043 -5.10581 1.02457 0.0 7.51681 0.0 8.66248 7.026 -1.73317 0.0 -36.6149 0.0 0.479012 -2.90602 6.6021 0.0 6.95646 0.0 9.9118 8.98539 -6.46662 0.0 -28.0219 0.0 
  1.9505000305175781 4.127030029296875 9.821099853515625 -155.103 83.2634 158.134 2.09749 -7.6373 -2.20991 0.712438 3.80562 -2.46636 -3.0647 29.0537 4.40329 15.4317 -54.8194 11.9142 -91.97139 -13.5874 -4.52461 -10.9844 0.269036 -30.2941 0.0 20.7781 0.0 26.8045 -7.24622 25.0857 0.0 0.0 0.0 0.0 0.0 0.0 99.15954 -9.85779 0.44039 7.53433 -0.155359 33.5708 0.0 19.5294 0.0 -16.0941 -1.30038 -24.5091 0.0 0.0 0.0 0.0 0.0 0.0 4.414 -5.10209 1.02152 0.0 7.53752 0.0 8.713 7.02113 -1.72301 0.0 -36.6405 0.0 0.483817 -2.88472 6.599 0.0 6.96363 0.0 9.91993 8.97258 -6.48279 0.0 -28.0167 0.0 
  1.9498699951171874 4.126340026855469 9.820889892578125 -155.09 83.2678 158.147 2.07987 -7.64068 -2.21111 0.716948 3.84101 -2.4642 -3.01322 28.9613 4.32814 15.3089 -54.7203 11.8413 -91.97104 -13.5749 -4.50926 -10.9932 0.232977 -30.1719 0.0 20.7913 0.0 26.8126 -7.22263 25.0457 0.0 0.0 0.0 0.0 0.0 0.0 99.17885 -9.87179 0.453678 7.53327 -0.138679 33.5311 0.0 19.5141 0.0 -16.1238 -1.3434 -24.4474 0.0 0.0 0.0 0.0 0.0 0.0 4.41848 -5.09825 0.998215 0.0 7.53428 0.0 8.68919 7.01338 -1.73929 0.0 -36.6215 0.0 0.487904 -2.868 6.60055 0.0 6.95733 0.0 9.92042 8.960279 -6.50709 0.0 -28.015701 0.0 
  1.949080047607422 4.125809936523438 9.820819702148437 -155.111 83.2541 158.192 2.0548 -7.65684 -2.2146 0.73357 3.87764 -2.46266 -3.05464 28.9515 4.38806 15.3445 -54.7634 11.8824 -91.9734 -13.6014 -4.51935 -10.9969 0.253966 -30.061 0.0 20.7632 0.0 26.8288 -7.21112 25.0965 0.0 0.0 0.0 0.0 0.0 0.0 99.1799 -9.84411 0.479896 7.54834 -0.16875 33.4849 0.0 19.4793 0.0 -16.146 -1.34285 -24.3377 0.0 0.0 0.0 0.0 0.0 0.0 4.42739 -5.10293 0.99821 0.0 7.51089 0.0 8.67595 7.01912 -1.77595 0.0 -36.6265 0.0 0.496807 -2.87745 6.59241 0.0 6.96377 0.0 9.9135 8.9452 -6.52527 0.0 -28.0097 0.0 
  1.9486300659179687 4.125280151367187 9.820700073242188 -155.184 83.2387 158.286 2.12088 -7.61078 -2.15256 0.569883 3.75898 -2.41413 -2.87746 29.0094 4.20193 15.333 -54.7192 11.9425 -91.88969 -13.5286 -4.44788 -10.9893 0.271352 -30.0424 0.0 20.7312 0.0 26.8766 -7.1636 25.1624 0.0 0.0 0.0 0.0 0.0 0.0 99.24704 -9.90715 0.422469 7.57452 -0.223414 33.4645 0.0 19.4693 0.0 -16.1617 -1.33844 -24.307 0.0 0.0 0.0 0.0 0.0 0.0 4.42704 -5.10817 1.00261 0.0 7.48245 0.0 8.56545 7.0064 -1.84971 0.0 -36.5571 0.0 0.497143 -2.88877 6.59042 0.0 6.96556 0.0 9.91895 8.92981 -6.54198 0.0 -28.006199 0.0 
  1.9483399963378907 4.125159912109375 9.820800170898437 -155.288 83.2064 158.402 2.10513 -7.64827 -2.14691 0.586616 3.7766 -2.40499 -2.966 29.0266 4.29029 15.3832 -54.7419 11.8823 -91.91863 -13.5221 -4.47254 -10.9987 0.26962 -30.1274 0.0 20.7445 0.0 26.87 -7.19915 25.1226 0.0 0.0 0.0 0.0 0.0 0.0 99.23784 -9.87857 0.4196 7.58046 -0.270467 33.4567 0.0 19.4637 0.0 -16.1654 -1.29888 -24.2365 0.0 0.0 0.0 0.0 0.0 0.0 4.4313 -5.13741 1.04468 0.0 7.46604 0.0 8.69778 7.03386 -1.84425 0.0 -36.6556 0.0 0.498306 -2.92017 6.59325 0.0 6.9625 0.0 9.92425 8.93069 -6.54997 0.0 -28.0044 0.0 
